<svg version="1.1" xmlns="http://www.w3.org/2000/svg" style="display: block;" viewBox="0 0 2048 2048" width="1024" height="1024">
<defs>
	<linearGradient id="Gradient1" gradientUnits="userSpaceOnUse" x1="573.045" y1="1387.11" x2="434.916" y2="1354.26">
		<stop class="stop0" offset="0" stop-opacity="1" stop-color="rgb(3,80,210)"/>
		<stop class="stop1" offset="1" stop-opacity="1" stop-color="rgb(3,131,255)"/>
	</linearGradient>
	<linearGradient id="Gradient2" gradientUnits="userSpaceOnUse" x1="510.943" y1="1120.14" x2="909.797" y2="955.168">
		<stop class="stop0" offset="0" stop-opacity="1" stop-color="rgb(4,96,240)"/>
		<stop class="stop1" offset="1" stop-opacity="1" stop-color="rgb(8,147,255)"/>
	</linearGradient>
	<linearGradient id="Gradient3" gradientUnits="userSpaceOnUse" x1="715.205" y1="951.564" x2="716.166" y2="1212.04">
		<stop class="stop0" offset="0" stop-opacity="1" stop-color="rgb(151,227,250)"/>
		<stop class="stop1" offset="1" stop-opacity="1" stop-color="rgb(230,245,250)"/>
	</linearGradient>
	<linearGradient id="Gradient4" gradientUnits="userSpaceOnUse" x1="1630.01" y1="1331.79" x2="976.53" y2="528.074">
		<stop class="stop0" offset="0" stop-opacity="1" stop-color="rgb(6,168,250)"/>
		<stop class="stop1" offset="1" stop-opacity="1" stop-color="rgb(25,212,250)"/>
	</linearGradient>
	<linearGradient id="Gradient5" gradientUnits="userSpaceOnUse" x1="1150.84" y1="1554" x2="1163.44" y2="1387.51">
		<stop class="stop0" offset="0" stop-opacity="1" stop-color="rgb(0,97,229)"/>
		<stop class="stop1" offset="1" stop-opacity="1" stop-color="rgb(1,140,255)"/>
	</linearGradient>
	<linearGradient id="Gradient6" gradientUnits="userSpaceOnUse" x1="984.233" y1="1414.18" x2="755.283" y2="1265.69">
		<stop class="stop0" offset="0" stop-opacity="1" stop-color="rgb(178,128,118)"/>
		<stop class="stop1" offset="1" stop-opacity="1" stop-color="rgb(236,191,174)"/>
	</linearGradient>
	<linearGradient id="Gradient7" gradientUnits="userSpaceOnUse" x1="1421.45" y1="1608.76" x2="1427.41" y2="1277.19">
		<stop class="stop0" offset="0" stop-opacity="1" stop-color="rgb(0,100,225)"/>
		<stop class="stop1" offset="1" stop-opacity="1" stop-color="rgb(1,140,255)"/>
	</linearGradient>
</defs>
<path transform="translate(0,0)" fill="rgb(255,255,255)" d="M 0 0 L 2048 0 L 2048 2048 L 0 2048 L 0 0 z"/>
<path transform="translate(0,0)" fill="rgb(9,141,251)" d="M 1552.63 604.746 C 1555.16 604.813 1558.04 604.761 1560.07 606.517 C 1563.86 609.788 1563.24 617.624 1563.49 622.237 C 1566.78 622.157 1571.12 621.61 1574.31 622.335 C 1577.89 623.15 1579.61 624.942 1581.61 627.782 C 1581.85 630.273 1582.1 631.333 1580.29 633.39 C 1575.97 638.277 1568.93 636.97 1563.17 636.671 C 1563.13 644.05 1564.33 649.058 1558.95 654.798 C 1556.59 654.86 1553.64 654.695 1551.86 652.972 C 1547.9 649.152 1549.23 641.162 1549.33 636.082 A 122.335 122.335 0 0 1 1545.97 636.059 C 1540.72 635.959 1534.36 636.253 1530.92 631.382 C 1529.32 629.118 1529.94 628.085 1530.71 625.741 C 1535.96 620.622 1541.03 621.31 1547.89 621.174 C 1548.11 614.438 1547.99 610.012 1552.63 604.746 z"/>
<path transform="translate(0,0)" fill="rgb(9,141,251)" d="M 415.469 684.762 C 418.929 684.811 422.599 684.711 425.093 687.581 C 428.511 691.515 427.103 700.32 426.982 705.213 C 430.031 705.26 433.114 705.289 436.155 705.52 C 440.734 705.869 442.92 707.326 445.868 710.712 C 446.386 712.911 446.858 713.983 445.341 715.997 C 441.168 721.532 433.185 720.684 427.049 720.857 C 427.099 728.713 428.258 733.714 422.54 739.837 C 421.932 739.886 421.325 739.946 420.716 739.982 C 418.181 740.133 415.664 739.603 413.937 737.558 C 410.646 733.66 411.529 725.74 411.521 720.905 C 405.966 721.115 399.011 722.18 394.671 717.848 C 392.637 715.819 392.412 714.516 392.213 711.742 C 392.903 710.353 393.531 709.072 394.724 708.03 C 399.527 703.837 405.98 705.073 411.863 705.331 C 411.793 697.626 410.553 691.269 415.469 684.762 z"/>
<path transform="translate(0,0)" fill="rgb(9,141,251)" d="M 412.271 1235.68 C 422.661 1237.66 422.715 1247.97 431.136 1252.29 C 431.746 1252.6 433.277 1253.34 433.875 1253.72 C 436.11 1255.18 436.632 1256.42 437.209 1258.91 C 434.964 1267.75 421.532 1280.99 414.112 1286.18 C 411.57 1285.42 409.497 1284.24 407.557 1282.43 C 402.66 1277.87 390.484 1266.02 391.15 1258.99 C 391.66 1253.6 408.078 1239.8 412.271 1235.68 z"/>
<path transform="translate(0,0)" fill="rgb(255,255,255)" d="M 411.445 1255.35 C 411.8 1255.41 412.158 1255.46 412.51 1255.54 C 415.839 1256.28 417.197 1257.17 418.97 1259.93 C 419.082 1262.96 418.117 1264.54 416.668 1267.07 C 413.023 1266.21 411.103 1265.21 409.044 1262.05 C 408.894 1258.93 409.797 1257.85 411.445 1255.35 z"/>
<path transform="translate(0,0)" fill="rgb(9,141,251)" d="M 429.235 900.528 C 431.402 900.386 433.596 900.234 435.765 900.412 C 439.51 900.717 442.76 901.574 445.176 904.541 L 444.893 906.944 L 442.485 904.702 C 437.161 906.152 412.182 933.298 406.372 939.118 L 398.383 930.816 C 390.521 923.162 381.888 915.642 374.583 907.491 C 373.707 906.514 372.974 905.614 371.947 904.771 C 371.697 904.565 371.433 904.379 371.176 904.183 L 372.043 902.864 C 382.778 898.101 416.576 900.555 429.235 900.528 z"/>
<path transform="translate(0,0)" fill="rgb(9,141,251)" d="M 1362.73 424.657 C 1363.13 424.646 1363.52 424.607 1363.92 424.626 C 1369.97 424.915 1385.54 442.381 1390.13 447.826 C 1392.86 451.083 1396.03 454.93 1395.62 459.422 C 1388.03 469.676 1375.45 479.463 1365.53 487.675 C 1363.3 487.973 1362.9 488.026 1361.05 486.668 C 1354.83 482.122 1333.03 461.679 1332.9 454.515 C 1332.83 450.222 1358 428.658 1362.73 424.657 z"/>
<path transform="translate(0,0)" fill="rgb(255,255,255)" d="M 1364.7 442.721 C 1369.9 445.042 1375.39 451.948 1379.47 455.985 C 1374.7 460.97 1369.68 465.692 1364.69 470.45 C 1360.54 469.426 1353.3 459.757 1350.13 456.334 C 1354.63 451.33 1359.57 447.065 1364.7 442.721 z"/>
<path transform="translate(0,0)" fill="rgb(9,141,251)" d="M 445.546 913.766 C 445.633 914.394 445.753 915.019 445.806 915.652 C 446.505 924.118 447.57 964.876 443.776 969.571 C 432.608 973.778 382.628 973.883 371.993 970.016 C 367.564 964.705 369.769 942.159 369.728 934.366 C 369.307 927.766 369.31 921.115 369.181 914.503 L 406.077 953.373 C 419.467 940.443 432.421 926.971 445.546 913.766 z"/>
<path transform="translate(0,0)" fill="url(#Gradient1)" d="M 544.541 1237.46 C 549.701 1239.9 554.416 1243.15 559.191 1246.26 C 572.911 1254.64 586.796 1262.83 600.34 1271.49 C 604.361 1274.17 608.386 1276.75 612.577 1279.16 C 608.858 1285.54 604.337 1293.79 598.695 1298.54 L 597.892 1298.66 C 586.87 1312.58 564.971 1341.06 557.138 1355.91 C 542.479 1374.47 475.914 1474.67 465.278 1478.67 C 460.184 1478.82 456.448 1477.33 451.955 1475 C 441.445 1469.53 416.425 1453.31 412.907 1441.92 C 415.929 1430.83 498.152 1318.71 512.745 1296.98 C 513.017 1295.51 532.838 1264.16 535.966 1259.21 L 535.464 1258.81 C 534.638 1253.66 541.979 1242.17 544.541 1237.46 z"/>
<path transform="translate(0,0)" fill="rgb(255,255,255)" d="M 544.541 1237.46 C 549.701 1239.9 554.416 1243.15 559.191 1246.26 C 572.911 1254.64 586.796 1262.83 600.34 1271.49 C 604.361 1274.17 608.386 1276.75 612.577 1279.16 C 608.858 1285.54 604.337 1293.79 598.695 1298.54 L 597.892 1298.66 A 2989.47 2989.47 0 0 0 535.966 1259.21 L 535.464 1258.81 C 534.638 1253.66 541.979 1242.17 544.541 1237.46 z"/>
<path transform="translate(0,0)" fill="rgb(9,141,251)" d="M 538.595 810.088 C 540.929 817.835 540.053 828.023 540.052 836.149 L 539.95 885.711 C 539.93 895.242 539.264 905.467 540.583 914.903 C 532.138 929.011 524.11 942.883 517.94 958.18 C 501.604 998.679 498.943 1046.04 509.406 1088.28 C 521.143 1135.67 550.023 1176.5 589.219 1205.16 C 578.215 1218.04 568.88 1232.37 559.191 1246.26 C 554.416 1243.15 549.701 1239.9 544.541 1237.46 C 541.979 1242.17 534.638 1253.66 535.464 1258.81 L 535.966 1259.21 C 532.838 1264.16 513.017 1295.51 512.745 1296.98 C 499.348 1275.78 483.686 1215.01 477.845 1189.72 C 449.992 1069.13 472.805 915.452 538.595 810.088 z"/>
<path transform="translate(0,0)" fill="rgb(92,192,251)" d="M 685.675 480.537 L 982.489 480.969 C 982.309 491.874 980.218 509.489 982.755 519.608 L 983.774 520.646 C 981.96 522.198 981.953 522.533 981.709 525.019 C 979.966 542.726 981.555 562.286 981.577 580.153 L 981.634 697.395 A 17568.2 17568.2 0 0 0 981.072 903.351 L 981.094 955.983 C 981.103 965.47 980.197 976.176 981.936 985.452 C 981.814 993.978 981.897 1002.37 982.919 1010.85 C 981.408 1020.69 981.963 1031.23 981.835 1041.19 A 3259.11 3259.11 0 0 1 981.011 1089.21 C 965.225 1113.72 953.464 1138.96 941.664 1165.5 C 936.122 1177.97 923.018 1212.27 915.804 1221.21 A 5429.57 5429.57 0 0 1 874.738 1178.8 C 865.987 1187.75 855.919 1200.38 845.056 1206.6 C 839.775 1209.6 834.887 1213.24 829.941 1216.75 C 809.207 1228.08 789.356 1235.75 766.764 1242.47 C 773.503 1254.09 781.401 1265.95 786.938 1278.15 C 765.154 1279.26 618.3 1276.62 612.577 1279.16 C 608.386 1276.75 604.361 1274.17 600.34 1271.49 C 586.796 1262.83 572.911 1254.64 559.191 1246.26 C 568.88 1232.37 578.215 1218.04 589.219 1205.16 C 550.023 1176.5 521.143 1135.67 509.406 1088.28 C 498.943 1046.04 501.604 998.679 517.94 958.18 C 524.11 942.883 532.138 929.011 540.583 914.903 C 539.264 905.467 539.93 895.242 539.95 885.711 L 540.052 836.149 C 540.053 828.023 540.929 817.835 538.595 810.088 C 541.41 799.947 539.736 771.732 539.801 759.323 C 540.038 714.143 540.799 668.712 539.496 623.553 C 544.379 617.445 550.92 612.017 556.572 606.598 L 589.492 574.89 L 650.238 515.115 C 661.908 503.583 673.307 491.306 685.675 480.537 z"/>
<path transform="translate(0,0)" fill="rgb(255,255,255)" d="M 908.705 949.432 L 925.953 948.604 C 926.105 954.985 928.263 971.492 924.136 976.301 L 921.127 977.386 C 917.85 967.803 913.061 958.568 908.705 949.432 z"/>
<path transform="translate(0,0)" fill="rgb(255,255,255)" d="M 596.056 807.359 A 10187 10187 0 0 1 704.064 807.342 A 325.49 325.49 0 0 1 703.756 825.865 C 688.747 826.19 674.016 828.572 659.29 831.326 C 638.398 829.995 617.084 830.884 596.142 830.921 L 596.056 807.359 z"/>
<path transform="translate(0,0)" fill="rgb(255,255,255)" d="M 766.98 679.502 A 10682.9 10682.9 0 0 1 927.369 679.211 L 927.265 698.285 L 909.257 698.659 A 11486.4 11486.4 0 0 1 748.971 698.083 L 748.931 679.682 L 766.98 679.502 z"/>
<path transform="translate(0,0)" fill="rgb(255,255,255)" d="M 828.794 616.503 A 7692.8 7692.8 0 0 1 927.338 616.744 L 927.252 636.045 L 846.5 636.055 L 749.069 636.02 L 749.048 616.937 C 775.609 616.42 802.225 616.626 828.794 616.503 z"/>
<path transform="translate(0,0)" fill="rgb(255,255,255)" d="M 596.149 668.282 C 640.681 667.218 685.484 668.195 730.043 668.224 L 730.092 695.047 L 596.19 694.829 L 596.149 668.282 z"/>
<path transform="translate(0,0)" fill="rgb(255,255,255)" d="M 750.04 805.367 L 927.926 805.249 A 600.767 600.767 0 0 1 927.7 825.185 C 868.516 826.816 809.198 824.939 749.986 825.923 L 750.04 805.367 z"/>
<path transform="translate(0,0)" fill="rgb(255,255,255)" d="M 596.195 737.903 C 633.312 737.25 670.54 737.839 707.666 737.844 L 927.904 738.035 L 927.791 762.033 L 596.314 762 L 596.195 737.903 z"/>
<path transform="translate(0,0)" fill="rgb(9,141,251)" d="M 685.675 480.537 C 687.303 494.809 685.985 510.61 685.895 525.019 C 685.692 557.689 685.014 590.447 685.835 623.107 C 637.109 623.026 588.194 622.14 539.496 623.553 C 544.379 617.445 550.92 612.017 556.572 606.598 L 589.492 574.89 L 650.238 515.115 C 661.908 503.583 673.307 491.306 685.675 480.537 z"/>
<path transform="translate(0,0)" fill="url(#Gradient2)" d="M 703.756 825.865 C 718.315 826.035 732.766 826.205 747.186 828.509 C 792.932 835.817 837.775 860.37 869.994 893.401 C 885.468 909.265 899.332 929.284 908.705 949.432 C 913.061 958.568 917.85 967.803 921.127 977.386 C 936.362 1038.7 932.641 1091.06 899.573 1146.31 C 892.804 1157.62 884.103 1169.45 874.738 1178.8 C 865.987 1187.75 855.919 1200.38 845.056 1206.6 C 839.775 1209.6 834.887 1213.24 829.941 1216.75 C 809.207 1228.08 789.356 1235.75 766.764 1242.47 C 773.503 1254.09 781.401 1265.95 786.938 1278.15 C 765.154 1279.26 618.3 1276.62 612.577 1279.16 C 608.386 1276.75 604.361 1274.17 600.34 1271.49 C 586.796 1262.83 572.911 1254.64 559.191 1246.26 C 568.88 1232.37 578.215 1218.04 589.219 1205.16 C 550.023 1176.5 521.143 1135.67 509.406 1088.28 C 498.943 1046.04 501.604 998.679 517.94 958.18 C 524.11 942.883 532.138 929.011 540.583 914.903 C 569.056 877.006 611.762 841.048 659.29 831.326 C 674.016 828.572 688.747 826.19 703.756 825.865 z"/>
<path transform="translate(0,0)" fill="rgb(80,191,252)" d="M 627.644 1228.17 C 669.309 1247.86 721.951 1256.64 766.764 1242.47 C 773.503 1254.09 781.401 1265.95 786.938 1278.15 C 765.154 1279.26 618.3 1276.62 612.577 1279.16 C 608.386 1276.75 604.361 1274.17 600.34 1271.49 C 609.965 1257.44 618.657 1242.63 627.644 1228.17 z"/>
<path transform="translate(0,0)" fill="rgb(92,192,251)" d="M 695.15 861.518 C 745.753 857.685 794.78 871.815 833.412 905.314 C 846.362 916.544 865.644 937.013 871.717 953.077 L 871.027 955.008 L 868.875 951.235 C 866.543 957.507 871.782 972.708 865.865 976.905 C 865.599 977.094 865.261 977.152 864.958 977.275 C 861.541 987.681 865.702 999.04 863.179 1009.18 C 782.611 1007.42 701.959 1009.01 621.382 1007.98 L 616.728 1006.75 L 616.969 1004.88 L 619.462 1003.57 C 593.575 1001.65 567.31 1002.7 541.344 1002.07 L 541.668 999.977 C 546.542 973.642 558.779 948.194 575.275 927.213 C 606.518 887.475 645.287 867.512 695.15 861.518 z"/>
<path transform="translate(0,0)" fill="rgb(180,232,249)" d="M 695.15 861.518 C 745.753 857.685 794.78 871.815 833.412 905.314 C 846.362 916.544 865.644 937.013 871.717 953.077 L 871.027 955.008 L 868.875 951.235 C 866.543 957.507 871.782 972.708 865.865 976.905 C 865.599 977.094 865.261 977.152 864.958 977.275 C 851.272 975.53 835.698 976.91 821.831 976.92 L 730.888 977.188 C 720.645 977.227 705.398 979.311 695.801 976.325 L 694.992 976.396 C 693.751 938.304 695.13 899.667 695.15 861.518 z"/>
<path transform="translate(0,0)" fill="rgb(255,255,255)" d="M 695.686 949.818 L 866.194 949.78 C 866.2 958.496 866.337 967.234 865.916 975.941 C 809.239 975.958 752.467 975.38 695.801 976.325 L 695.686 949.818 z"/>
<path transform="translate(0,0)" fill="url(#Gradient3)" d="M 864.958 977.275 C 865.261 977.152 865.599 977.094 865.865 976.905 C 871.782 972.708 866.543 957.507 868.875 951.235 L 871.027 955.008 L 871.717 953.077 C 893.954 985.374 897.788 1033.94 890.791 1071.51 C 882.191 1117.68 853.725 1159.3 815.082 1185.65 C 778.286 1210.75 730.369 1219.48 686.794 1211.19 A 184.465 184.465 0 0 1 567.714 1133.64 C 541.561 1094.7 534.326 1047.96 541.344 1002.07 C 567.31 1002.7 593.575 1001.65 619.462 1003.57 L 616.969 1004.88 L 616.728 1006.75 L 621.382 1007.98 C 701.959 1009.01 782.611 1007.42 863.179 1009.18 C 865.702 999.04 861.541 987.681 864.958 977.275 z"/>
<path transform="translate(0,0)" fill="rgb(255,255,255)" d="M 610.052 1069.16 A 10003.9 10003.9 0 0 1 751.994 1070 A 643.701 643.701 0 0 1 751.845 1094.24 A 9773.28 9773.28 0 0 1 610.136 1094.03 L 610.052 1069.16 z"/>
<path transform="translate(0,0)" fill="rgb(92,192,251)" d="M 789.572 1049.04 C 798.367 1048.63 803.286 1050.84 809.799 1056.69 C 815.288 1052.85 820.186 1050.17 827.042 1049.88 C 832.551 1049.64 837.958 1051.11 842.019 1054.99 C 846.39 1059.17 848.659 1065.55 848.572 1071.53 C 848.36 1085.92 836.019 1097.66 826.286 1106.85 C 820.75 1111.76 815.414 1116.52 809.098 1120.41 C 808.748 1120.22 808.393 1120.03 808.047 1119.83 C 793.353 1111.31 773.824 1093.72 769.797 1076.46 C 768.481 1070.82 768.522 1064.42 771.849 1059.45 C 775.849 1053.47 782.867 1050.62 789.572 1049.04 z"/>
<path transform="translate(0,0)" fill="rgb(255,255,255)" d="M 621.382 1007.98 C 701.959 1009.01 782.611 1007.42 863.179 1009.18 C 862.79 1017.78 863.054 1026.53 863 1035.15 C 778.654 1035.73 694.231 1034.74 609.888 1034.15 C 610.044 1026.33 607.509 1017.02 611.405 1010.03 C 614.302 1007.68 617.834 1008.09 621.382 1007.98 z"/>
<path transform="translate(0,0)" fill="url(#Gradient4)" d="M 983.774 520.646 C 1123.62 497.267 1266.03 535.303 1380.81 617.068 A 568.227 568.227 0 0 1 1614.79 988.968 C 1634.16 1105.14 1612.1 1227.99 1563.58 1334.5 C 1547.6 1369.59 1528.12 1403.07 1508.24 1436.06 A 116.761 116.761 0 0 0 1495.97 1413.24 C 1497.2 1407.86 1498.11 1403 1496.98 1397.49 C 1495.03 1387.94 1490.02 1378.92 1481.57 1373.67 C 1474.55 1369.3 1467.3 1368.71 1459.43 1370.59 C 1448.5 1368.12 1440.23 1358.88 1432.39 1351.42 C 1437.19 1338.54 1448.41 1326.07 1448.98 1312.02 C 1449.34 1303.16 1445.09 1294.66 1439.1 1288.34 C 1431.22 1280.01 1421.77 1275.95 1410.43 1275.45 C 1402.61 1277.07 1394.77 1278.62 1387.03 1280.61 C 1387.43 1250.91 1383.73 1217.5 1380.11 1187.92 C 1377.04 1155.02 1369.87 1134.44 1349.03 1108.27 C 1341.36 1102.2 1335.83 1092.98 1327.61 1087.06 C 1317.88 1080.06 1306.58 1074.56 1296.06 1068.8 A 1708.28 1708.28 0 0 1 1242.73 1038.96 L 1226.21 1028.11 C 1207.39 1012.74 1194.48 996.162 1186.36 973.202 C 1163.29 982.953 1141.79 987.321 1116.78 986.944 C 1115.67 997.96 1115.42 1010.19 1113.06 1020.98 C 1107.32 1023.12 1101.6 1025.3 1095.84 1027.36 C 1088.79 1029.24 1082.1 1032.19 1075.28 1034.76 A 278.989 278.989 0 0 0 1004.88 1067.59 C 992.245 1051.8 987.61 1030.05 982.919 1010.85 C 981.897 1002.37 981.814 993.978 981.936 985.452 C 980.197 976.176 981.103 965.47 981.094 955.983 L 981.072 903.351 A 17568.2 17568.2 0 0 1 981.634 697.395 L 981.577 580.153 C 981.555 562.286 979.966 542.726 981.709 525.019 C 981.953 522.533 981.96 522.198 983.774 520.646 z"/>
<path transform="translate(0,0)" fill="rgb(9,141,251)" d="M 1457.08 828.666 C 1458.88 829.166 1460.5 829.528 1461.92 830.817 C 1463.61 832.339 1464.41 834.431 1464.14 836.688 C 1463.63 840.894 1460.98 842.964 1457.89 845.412 C 1455.87 844.361 1454.04 843.102 1452.66 841.244 C 1451.2 839.275 1450.61 837.008 1451.32 834.627 C 1452.19 831.659 1454.66 830.244 1457.08 828.666 z"/>
<path transform="translate(0,0)" fill="rgb(9,141,251)" d="M 1436.43 847.967 C 1443.15 849.234 1442.13 853.612 1446.31 854.956 C 1455.92 858.049 1480.73 850.031 1492.79 855.329 C 1494.61 857.518 1494.45 857.553 1494.41 860.431 C 1492.58 862.902 1492.33 862.555 1489.25 863.08 C 1471.45 862.884 1452.98 864.212 1435.28 862.956 C 1431.75 862.705 1429.98 862.333 1427.65 859.638 C 1426.99 856.879 1426.85 855.654 1427.83 852.971 C 1430.33 850.212 1433.01 849.301 1436.43 847.967 z"/>
<path transform="translate(0,0)" fill="rgb(9,141,251)" d="M 1408.72 896.88 C 1418.26 896.585 1485.11 897.363 1488.64 899.374 C 1489.41 901.749 1489.48 902.203 1488.98 904.642 C 1486.65 906.68 1485.82 906.616 1482.85 907.115 C 1454.93 905.213 1426.72 905.798 1398.74 905.74 L 1408.72 896.88 z"/>
<path transform="translate(0,0)" fill="rgb(255,255,255)" d="M 1519.53 1045.12 C 1526.54 1044.65 1532.8 1044.14 1539.49 1046.88 A 31.1194 31.1194 0 0 1 1556.77 1064.38 C 1560.01 1072.52 1559.57 1081.56 1556.03 1089.52 C 1551.82 1099 1544.33 1104.66 1534.87 1108.28 C 1527.59 1109.8 1520.54 1109.09 1513.84 1105.77 A 32.9318 32.9318 0 0 1 1497.4 1086.53 A 34.5948 34.5948 0 0 1 1499.98 1059.53 C 1504.39 1051.53 1511.02 1047.67 1519.53 1045.12 z"/>
<path transform="translate(0,0)" fill="rgb(9,141,251)" d="M 1521.34 1063.07 C 1523.62 1062.86 1525.96 1062.66 1528.24 1062.98 C 1532.15 1063.53 1535.85 1065.83 1538.18 1069.01 C 1540.19 1071.75 1540.93 1075.14 1540.39 1078.49 C 1539.56 1083.72 1536.44 1086.59 1532.44 1089.7 C 1530.33 1090.01 1528.11 1090.34 1525.98 1090.3 C 1522.34 1090.23 1518.23 1088.08 1515.86 1085.37 C 1513.39 1082.54 1512.37 1078.8 1512.87 1075.09 C 1513.64 1069.39 1516.97 1066.37 1521.34 1063.07 z"/>
<path transform="translate(0,0)" fill="rgb(5,79,176)" d="M 1349.03 1108.27 A 58.9074 58.9074 0 0 0 1354.83 1107.74 C 1390.45 1102.55 1440.49 1073.88 1461.93 1044.61 C 1464.83 1083.46 1458.6 1119.02 1432.42 1149.29 C 1418.35 1165.55 1399.69 1179.1 1380.11 1187.92 C 1377.04 1155.02 1369.87 1134.44 1349.03 1108.27 z"/>
<path transform="translate(0,0)" fill="rgb(10,135,246)" d="M 1020.98 851.758 C 1005.58 819.889 999.5 780.501 1011.35 746.6 C 1023.9 710.688 1052.16 682.709 1086.11 666.464 C 1124.53 648.078 1168.69 644.538 1209.04 658.85 C 1252.23 674.168 1286.98 708.862 1306.16 749.999 C 1313.21 765.124 1318.38 781.022 1320.53 797.616 C 1324.82 830.751 1316.73 890.598 1332.07 917.206 C 1356.96 960.4 1415.38 949.953 1447.28 999.893 C 1455.57 1012.87 1460.79 1029.28 1461.93 1044.61 C 1440.49 1073.88 1390.45 1102.55 1354.83 1107.74 A 58.9074 58.9074 0 0 1 1349.03 1108.27 C 1341.36 1102.2 1335.83 1092.98 1327.61 1087.06 C 1317.88 1080.06 1306.58 1074.56 1296.06 1068.8 A 1708.28 1708.28 0 0 1 1242.73 1038.96 L 1226.21 1028.11 C 1207.39 1012.74 1194.48 996.162 1186.36 973.202 C 1163.29 982.953 1141.79 987.321 1116.78 986.944 C 1115.67 997.96 1115.42 1010.19 1113.06 1020.98 C 1107.32 1023.12 1101.6 1025.3 1095.84 1027.36 C 1088.79 1029.24 1082.1 1032.19 1075.28 1034.76 A 278.989 278.989 0 0 0 1004.88 1067.59 C 992.245 1051.8 987.61 1030.05 982.919 1010.85 C 981.897 1002.37 981.814 993.978 981.936 985.452 C 987.148 970.254 993.148 955.331 998.245 940.092 C 1003.51 924.342 1007.96 908.262 1012.86 892.387 C 1016.1 881.916 1021.46 869.287 1022.31 858.47 C 1022.49 856.188 1021.71 853.887 1020.98 851.758 z"/>
<path transform="translate(0,0)" fill="rgb(239,214,209)" d="M 1032.53 869.788 C 1033.71 860.688 1033.08 851.024 1034.04 841.776 C 1037.52 808.197 1048.47 777.176 1065.99 748.441 A 121.294 121.294 0 0 0 1070.18 784.233 C 1076 806.218 1087.09 823.288 1107.04 834.767 C 1123.4 844.185 1157.14 855.656 1175.68 850.625 C 1184.13 848.486 1192.31 847.188 1200.24 851.872 C 1205.84 855.175 1209.46 860.861 1210.97 867.096 C 1213.02 875.536 1211.62 884.849 1206.79 892.115 C 1202.31 898.857 1194.95 903.547 1187 905.017 C 1184.41 905.497 1181.7 905.622 1179.07 905.651 C 1176.76 909.722 1177.92 918.969 1178.09 923.781 C 1179.49 940.701 1182.25 956.708 1186.36 973.202 C 1163.29 982.953 1141.79 987.321 1116.78 986.944 C 1115.67 997.96 1115.42 1010.19 1113.06 1020.98 C 1107.32 1023.12 1101.6 1025.3 1095.84 1027.36 C 1088.79 1029.24 1082.1 1032.19 1075.28 1034.76 C 1065.12 1016.43 1047.28 960.931 1048.38 939.117 C 1037.43 917.021 1033.5 894.265 1032.53 869.788 z"/>
<path transform="translate(0,0)" fill="rgb(10,135,246)" d="M 1180.68 862.107 C 1184.69 862.576 1188.19 862.955 1190.83 866.438 C 1192.74 868.965 1193.14 872.197 1192.52 875.229 C 1191.61 879.63 1188.12 884.55 1184.33 886.937 C 1182.86 887.863 1182.97 887.763 1181.53 888.446 C 1179.47 884.069 1178.61 879.708 1178.28 874.883 C 1177.99 870.731 1177.84 865.435 1180.68 862.107 z"/>
<path transform="translate(0,0)" fill="rgb(208,154,137)" d="M 1178.09 923.781 C 1179.49 940.701 1182.25 956.708 1186.36 973.202 C 1163.29 982.953 1141.79 987.321 1116.78 986.944 C 1117.29 979.891 1118.77 972.423 1118.18 965.397 C 1118.75 965.305 1119.32 965.191 1119.88 965.083 C 1145.63 960.18 1163.69 945.039 1178.09 923.781 z"/>
<path transform="translate(0,0)" fill="rgb(5,79,176)" d="M 1048.38 939.117 C 1058.6 953.045 1069.69 964.32 1087.7 967.167 C 1097.93 968.786 1108.1 967.34 1118.18 965.397 C 1118.77 972.423 1117.29 979.891 1116.78 986.944 C 1115.67 997.96 1115.42 1010.19 1113.06 1020.98 C 1107.32 1023.12 1101.6 1025.3 1095.84 1027.36 C 1088.79 1029.24 1082.1 1032.19 1075.28 1034.76 C 1065.12 1016.43 1047.28 960.931 1048.38 939.117 z"/>
<path transform="translate(0,0)" fill="rgb(9,141,251)" d="M 1116.78 986.944 C 1141.79 987.321 1163.29 982.953 1186.36 973.202 C 1194.48 996.162 1207.39 1012.74 1226.21 1028.11 L 1242.73 1038.96 A 1708.28 1708.28 0 0 0 1296.06 1068.8 C 1306.58 1074.56 1317.88 1080.06 1327.61 1087.06 C 1335.83 1092.98 1341.36 1102.2 1349.03 1108.27 C 1369.87 1134.44 1377.04 1155.02 1380.11 1187.92 C 1383.73 1217.5 1387.43 1250.91 1387.03 1280.61 C 1394.77 1278.62 1402.61 1277.07 1410.43 1275.45 C 1421.77 1275.95 1431.22 1280.01 1439.1 1288.34 C 1445.09 1294.66 1449.34 1303.16 1448.98 1312.02 C 1448.41 1326.07 1437.19 1338.54 1432.39 1351.42 C 1440.23 1358.88 1448.5 1368.12 1459.43 1370.59 C 1467.3 1368.71 1474.55 1369.3 1481.57 1373.67 C 1490.02 1378.92 1495.03 1387.94 1496.98 1397.49 C 1498.11 1403 1497.2 1407.86 1495.97 1413.24 C 1490.61 1423.91 1484.62 1430.86 1472.91 1434.8 C 1468.77 1436.2 1464.48 1437.11 1460.22 1438.04 L 1456.35 1455.69 C 1464.93 1456.02 1471.27 1457.16 1477.37 1463.76 C 1484 1470.95 1485.82 1481.54 1485.26 1490.99 A 50.8176 50.8176 0 0 1 1480.62 1509.22 C 1485.33 1512.86 1492.18 1519.53 1497.94 1520.84 C 1500.26 1519.69 1500.76 1518.76 1501.58 1516.29 C 1510.24 1490.21 1485.07 1474.31 1506.59 1441.12 C 1517.9 1436.15 1528.33 1433.08 1540.51 1437.75 C 1549.92 1441.36 1555.38 1447.95 1560.39 1456.36 A 3668.14 3668.14 0 0 0 1582.65 1419.53 C 1587.87 1410.59 1592.67 1398.89 1599.82 1391.41 C 1603.66 1387.39 1609.62 1384.55 1614.93 1383.18 C 1626.37 1380.23 1638.67 1382.53 1648.69 1388.63 C 1660.27 1395.68 1669.97 1408.14 1672.99 1421.43 C 1675.53 1432.59 1673.92 1445.44 1667.78 1455.2 C 1656.19 1473.62 1627.77 1475.5 1608.93 1483.06 C 1618.45 1494.27 1628.93 1505.9 1627.33 1521.82 C 1626.69 1528.18 1623.31 1533.21 1618.36 1537.12 C 1603.97 1548.47 1583.65 1546.48 1566.6 1550.23 C 1572.25 1559.74 1578.53 1569.48 1575.88 1581.1 C 1574.07 1589.02 1568.46 1594.93 1561.68 1599.03 C 1552.74 1604.44 1542.22 1607.11 1532.14 1609.47 C 1546.9 1610.78 1607.63 1608.33 1614.62 1612.12 L 1615.66 1613.89 C 1614.92 1616.04 1614.77 1617.43 1612.37 1618.3 C 1607.32 1620.13 1503.64 1618.17 1489.13 1618.27 L 777.6 1621.92 C 748.902 1622.06 519.227 1624.21 513.919 1621.5 C 510.684 1619.85 508.951 1616.11 508.05 1612.81 C 508.722 1610.05 508.811 1609.29 511.243 1607.53 C 514.718 1605.02 520.722 1604.54 524.83 1604.28 C 535.106 1603.65 545.652 1604.53 555.955 1604.58 L 615.346 1604.67 L 781.432 1604.79 C 795.529 1604.85 827.303 1607.89 839.11 1605.29 C 822.336 1599.92 800.208 1585.27 784.154 1576.38 C 764.903 1565.72 745.669 1555.1 727.383 1542.83 A 543.312 543.312 0 0 1 557.138 1355.91 C 564.971 1341.06 586.87 1312.58 597.892 1298.66 L 598.695 1298.54 C 604.337 1293.79 608.858 1285.54 612.577 1279.16 C 618.3 1276.62 765.154 1279.26 786.938 1278.15 C 781.401 1265.95 773.503 1254.09 766.764 1242.47 C 789.356 1235.75 809.207 1228.08 829.941 1216.75 C 834.887 1213.24 839.775 1209.6 845.056 1206.6 C 855.919 1200.38 865.987 1187.75 874.738 1178.8 A 5429.57 5429.57 0 0 0 915.804 1221.21 C 923.018 1212.27 936.122 1177.97 941.664 1165.5 C 953.464 1138.96 965.225 1113.72 981.011 1089.21 A 3259.11 3259.11 0 0 0 981.835 1041.19 C 981.963 1031.23 981.408 1020.69 982.919 1010.85 C 987.61 1030.05 992.245 1051.8 1004.88 1067.59 A 278.989 278.989 0 0 1 1075.28 1034.76 C 1082.1 1032.19 1088.79 1029.24 1095.84 1027.36 C 1101.6 1025.3 1107.32 1023.12 1113.06 1020.98 C 1115.42 1010.19 1115.67 997.96 1116.78 986.944 z"/>
<path transform="translate(0,0)" fill="rgb(80,191,252)" d="M 777.526 1468.09 C 784.64 1467.58 790.993 1468.71 796.954 1472.86 C 802.908 1477.01 806.736 1483.57 807.996 1490.67 C 809.375 1498.44 807.829 1506.69 803.221 1513.16 C 797.341 1521.4 789.81 1523.61 780.343 1524.98 C 776.72 1524.47 773.158 1523.75 769.708 1522.5 C 761.697 1519.59 753.996 1514.47 750.668 1506.3 C 748.376 1500.68 748.62 1494.5 751.101 1488.99 C 756.036 1478.02 766.701 1471.96 777.526 1468.09 z"/>
<path transform="translate(0,0)" fill="url(#Gradient5)" d="M 978.867 1370.31 C 985.065 1372.49 993.176 1373.78 998.825 1376.79 C 1008.14 1381.75 1016.86 1391.27 1024.84 1398.18 C 1040.3 1411.58 1089.61 1453.51 1105.14 1459.46 C 1151.78 1493.73 1234.45 1531.35 1292.48 1522.27 A 78.9793 78.9793 0 0 0 1329.67 1506.12 C 1332.23 1519.04 1332.8 1532.83 1334.02 1545.97 C 1335.95 1566.62 1338.19 1587.4 1339.09 1608.12 C 1324.01 1605.76 1307.68 1606.81 1292.45 1606.87 C 1300.32 1605.18 1332.64 1607.33 1335.68 1604.96 C 1337.98 1592.49 1335.56 1573.96 1333.48 1561.38 C 1329.21 1560.62 1319.66 1565.32 1314.5 1566.19 C 1304.78 1567.85 1294.78 1567.93 1284.95 1567.34 C 1186.31 1561.44 1057.01 1480.47 992.291 1408.03 C 989.36 1398.59 989.787 1389.67 982.617 1381.92 C 981.92 1377.69 980.567 1374.24 978.867 1370.31 z"/>
<path transform="translate(0,0)" fill="url(#Gradient6)" d="M 829.941 1216.75 C 834.887 1213.24 839.775 1209.6 845.056 1206.6 C 856.127 1217.59 867.445 1228.45 878.122 1239.82 C 883.885 1245.96 889.102 1252.65 894.902 1258.72 C 890.63 1270.62 888.724 1280.55 889.6 1293.31 C 900.112 1323.03 915.649 1342.28 944.397 1356.22 C 950.67 1359.27 959.135 1363.72 965.89 1365.16 C 970.283 1366.7 974.765 1368.08 978.867 1370.31 C 980.567 1374.24 981.92 1377.69 982.617 1381.92 C 989.787 1389.67 989.36 1398.59 992.291 1408.03 C 985.966 1429.09 973.636 1449.55 953.93 1460.47 C 942.483 1466.82 929.959 1468.33 917.444 1464.5 C 916.098 1464.09 915.903 1463.96 914.787 1463.46 C 914.338 1463.37 913.881 1463.31 913.439 1463.19 C 898.767 1459.21 885.801 1445.07 876.648 1433.61 C 862.558 1415.98 851.513 1395.68 840.446 1376.08 C 822.16 1343.68 805.053 1310.64 786.938 1278.15 C 781.401 1265.95 773.503 1254.09 766.764 1242.47 C 789.356 1235.75 809.207 1228.08 829.941 1216.75 z"/>
<path transform="translate(0,0)" fill="rgb(10,135,246)" d="M 978.089 1381.04 C 976.091 1377.74 971.117 1375.05 968.422 1371.97 C 966.326 1369.58 965.636 1368.22 965.89 1365.16 C 970.283 1366.7 974.765 1368.08 978.867 1370.31 C 980.567 1374.24 981.92 1377.69 982.617 1381.92 L 978.089 1381.04 z"/>
<path transform="translate(0,0)" fill="rgb(208,154,137)" d="M 978.089 1381.04 L 982.617 1381.92 C 989.787 1389.67 989.36 1398.59 992.291 1408.03 C 985.966 1429.09 973.636 1449.55 953.93 1460.47 C 942.483 1466.82 929.959 1468.33 917.444 1464.5 C 916.098 1464.09 915.903 1463.96 914.787 1463.46 C 915.484 1463.21 916.15 1462.93 916.914 1462.91 C 918.804 1462.88 920.547 1463.37 922.516 1463.23 C 926.58 1462.94 933.625 1460.41 937.161 1458.34 C 947.625 1452.21 981.328 1417.2 989.822 1406.75 C 989.985 1404.75 989.824 1402.91 989.477 1400.94 C 988.532 1395.57 985.252 1386.96 980.568 1383.73 C 979.132 1382.74 979.259 1383.12 978.435 1381.77 C 978.293 1381.54 978.204 1381.28 978.089 1381.04 z"/>
<path transform="translate(0,0)" fill="rgb(80,191,252)" d="M 829.941 1216.75 C 834.887 1213.24 839.775 1209.6 845.056 1206.6 C 856.127 1217.59 867.445 1228.45 878.122 1239.82 C 883.885 1245.96 889.102 1252.65 894.902 1258.72 C 890.63 1270.62 888.724 1280.55 889.6 1293.31 C 869.021 1271.61 848.742 1240.87 829.941 1216.75 z"/>
<path transform="translate(0,0)" fill="url(#Gradient7)" d="M 1410.43 1275.45 C 1421.77 1275.95 1431.22 1280.01 1439.1 1288.34 C 1445.09 1294.66 1449.34 1303.16 1448.98 1312.02 C 1448.41 1326.07 1437.19 1338.54 1432.39 1351.42 C 1440.23 1358.88 1448.5 1368.12 1459.43 1370.59 C 1467.3 1368.71 1474.55 1369.3 1481.57 1373.67 C 1490.02 1378.92 1495.03 1387.94 1496.98 1397.49 C 1498.11 1403 1497.2 1407.86 1495.97 1413.24 C 1490.61 1423.91 1484.62 1430.86 1472.91 1434.8 C 1468.77 1436.2 1464.48 1437.11 1460.22 1438.04 L 1456.35 1455.69 C 1464.93 1456.02 1471.27 1457.16 1477.37 1463.76 C 1484 1470.95 1485.82 1481.54 1485.26 1490.99 A 50.8176 50.8176 0 0 1 1480.62 1509.22 C 1469.47 1525.72 1460.12 1544.69 1453.64 1563.57 C 1451.82 1568.84 1450.77 1574.33 1448.94 1579.61 L 1447.64 1578.59 L 1450.04 1578.61 L 1446.31 1577 L 1446.69 1576.35 L 1446.46 1575.24 C 1444.26 1563.96 1443.86 1552.32 1441.84 1540.94 C 1432.05 1485.92 1422.31 1430.47 1409.39 1376.11 C 1406.89 1365.59 1404.59 1340.22 1399.84 1332.3 L 1398.53 1331.66 C 1397.38 1334.16 1398.08 1336.96 1398.56 1339.57 C 1402.81 1362.57 1408.99 1385.34 1413.75 1408.24 A 4147.35 4147.35 0 0 1 1436.14 1528.67 C 1439.39 1547.33 1445.54 1571.39 1445.77 1589.94 C 1445.85 1596.51 1442.97 1604.79 1441.17 1611.16 C 1436.2 1610.89 1429.22 1609.44 1424.51 1610.15 C 1417.12 1611.59 1341.93 1609.5 1339.09 1608.12 C 1338.19 1587.4 1335.95 1566.62 1334.02 1545.97 C 1332.8 1532.83 1332.23 1519.04 1329.67 1506.12 C 1340.07 1493.27 1344.03 1494.2 1351.41 1476.53 C 1354.55 1462.5 1356.66 1448.21 1358.87 1434.01 C 1360.45 1426.72 1361.38 1419.18 1362.56 1411.81 L 1362.84 1409.04 C 1366.14 1388.77 1368.17 1368.37 1369.97 1347.92 C 1370.12 1342.19 1372.77 1331.31 1370.21 1326.34 L 1370.58 1324.9 L 1373.97 1325.44 C 1377.94 1324.6 1381.86 1323.22 1385.75 1322.02 C 1385.71 1312.57 1384.08 1288.64 1387.03 1280.61 C 1394.77 1278.62 1402.61 1277.07 1410.43 1275.45 z"/>
<path transform="translate(0,0)" fill="rgb(9,141,251)" d="M 1362.84 1409.04 C 1370.95 1408.31 1377.11 1408.65 1383.52 1414.17 C 1389.95 1419.71 1394.44 1429.2 1398.2 1436.75 C 1386.68 1428.3 1373.25 1421.11 1362.56 1411.81 L 1362.84 1409.04 z"/>
<path transform="translate(0,0)" fill="rgb(9,141,251)" d="M 1432.39 1351.42 C 1440.23 1358.88 1448.5 1368.12 1459.43 1370.59 C 1448.45 1375.1 1435.85 1389.08 1424.23 1389.85 C 1421.64 1390.03 1421.22 1389.75 1419.4 1388.18 C 1416.76 1378.11 1427.95 1360.49 1432.39 1351.42 z"/>
<path transform="translate(0,0)" fill="rgb(10,135,246)" d="M 1387.03 1280.61 C 1394.77 1278.62 1402.61 1277.07 1410.43 1275.45 C 1408.97 1291.36 1407.73 1307.14 1407.7 1323.13 C 1396.68 1322.35 1383.68 1327.38 1373.97 1325.44 C 1377.94 1324.6 1381.86 1323.22 1385.75 1322.02 C 1385.71 1312.57 1384.08 1288.64 1387.03 1280.61 z"/>
<path transform="translate(0,0)" fill="rgb(255,255,255)" d="M 1351.41 1476.53 C 1358.8 1481.18 1364.63 1484.48 1373.69 1482.23 C 1379.61 1480.76 1385.62 1477.47 1391.12 1474.86 C 1400.84 1486.23 1408.82 1500.16 1414.91 1513.81 C 1402.23 1507.65 1388.5 1493.66 1373.42 1498.97 C 1367.56 1501.03 1363.18 1505.76 1360.7 1511.36 C 1357.25 1519.17 1357.12 1528.8 1360.33 1536.71 C 1363.54 1544.61 1369.53 1548.93 1377.3 1551.91 C 1389.12 1556.44 1401.88 1558.55 1414 1562.14 C 1406.72 1565.34 1399.27 1569.26 1396.11 1577.09 C 1394.32 1581.54 1394.56 1586.44 1396.51 1590.79 C 1400.97 1600.77 1412.48 1605.98 1422.22 1609.46 C 1422.97 1609.73 1423.74 1609.95 1424.51 1610.15 C 1417.12 1611.59 1341.93 1609.5 1339.09 1608.12 C 1338.19 1587.4 1335.95 1566.62 1334.02 1545.97 C 1332.8 1532.83 1332.23 1519.04 1329.67 1506.12 C 1340.07 1493.27 1344.03 1494.2 1351.41 1476.53 z"/>
<path transform="translate(0,0)" fill="rgb(239,214,209)" d="M 874.738 1178.8 A 5429.57 5429.57 0 0 0 915.804 1221.21 C 923.096 1228.52 930.544 1237.01 939.093 1242.8 C 937.442 1238.24 934.808 1232.17 937.41 1227.41 C 938.575 1225.28 940.347 1223.9 942.746 1223.47 C 948.106 1222.52 952.703 1227.23 956.303 1230.45 C 964.215 1238.56 972.669 1246.01 980.761 1253.92 C 1004.29 1277.98 1021.33 1294.71 1033.71 1326.82 C 1069.66 1343.56 1107.29 1356.91 1144.31 1371.05 C 1180.49 1384.87 1216.69 1399.63 1253.72 1411.03 C 1255.05 1392.79 1256.81 1374.45 1257.17 1356.16 L 1257.87 1350.6 C 1257.91 1344.06 1258.49 1337.54 1258.96 1331.02 C 1291.63 1333.79 1338.81 1336.33 1370.21 1326.34 C 1372.77 1331.31 1370.12 1342.19 1369.97 1347.92 C 1368.17 1368.37 1366.14 1388.77 1362.84 1409.04 L 1362.56 1411.81 C 1361.38 1419.18 1360.45 1426.72 1358.87 1434.01 C 1356.66 1448.21 1354.55 1462.5 1351.41 1476.53 C 1344.03 1494.2 1340.07 1493.27 1329.67 1506.12 A 78.9793 78.9793 0 0 1 1292.48 1522.27 C 1234.45 1531.35 1151.78 1493.73 1105.14 1459.46 C 1089.61 1453.51 1040.3 1411.58 1024.84 1398.18 C 1016.86 1391.27 1008.14 1381.75 998.825 1376.79 C 993.176 1373.78 985.065 1372.49 978.867 1370.31 C 974.765 1368.08 970.283 1366.7 965.89 1365.16 C 959.135 1363.72 950.67 1359.27 944.397 1356.22 C 915.649 1342.28 900.112 1323.03 889.6 1293.31 C 888.724 1280.55 890.63 1270.62 894.902 1258.72 C 889.102 1252.65 883.885 1245.96 878.122 1239.82 C 867.445 1228.45 856.127 1217.59 845.056 1206.6 C 855.919 1200.38 865.987 1187.75 874.738 1178.8 z"/>
<path transform="translate(0,0)" fill="rgb(231,190,178)" d="M 1370.21 1326.34 C 1372.77 1331.31 1370.12 1342.19 1369.97 1347.92 A 663.821 663.821 0 0 1 1257.87 1350.6 C 1257.91 1344.06 1258.49 1337.54 1258.96 1331.02 C 1291.63 1333.79 1338.81 1336.33 1370.21 1326.34 z"/>
<path transform="translate(0,0)" fill="rgb(5,79,176)" d="M 874.738 1178.8 A 5429.57 5429.57 0 0 0 915.804 1221.21 C 923.096 1228.52 930.544 1237.01 939.093 1242.8 C 947.392 1250.36 955.662 1258.72 962.381 1267.72 C 960.541 1271.6 958.827 1275.63 956.555 1279.29 C 943.317 1265.29 929.408 1249.05 914.271 1237.16 C 905.419 1242.79 899.713 1249.37 894.902 1258.72 C 889.102 1252.65 883.885 1245.96 878.122 1239.82 C 867.445 1228.45 856.127 1217.59 845.056 1206.6 C 855.919 1200.38 865.987 1187.75 874.738 1178.8 z"/>
<path transform="translate(0,0)" fill="rgb(231,190,178)" d="M 1105.14 1459.46 C 1112.09 1459.56 1117.75 1468.65 1122.99 1467.98 C 1132.21 1466.81 1141.11 1462.25 1150.72 1461.13 C 1178.88 1457.83 1208.3 1461.46 1236.52 1458.1 C 1266.32 1454.54 1295.92 1449.02 1325.76 1445.35 C 1334.31 1444.3 1345.01 1441.7 1353.46 1443.13 C 1354.04 1443.23 1354.61 1443.36 1355.18 1443.47 C 1355.25 1442.99 1355.28 1442.5 1355.39 1442.03 C 1355.94 1439.58 1356.68 1437.22 1357.15 1434.71 L 1358.87 1434.01 C 1356.66 1448.21 1354.55 1462.5 1351.41 1476.53 C 1344.03 1494.2 1340.07 1493.27 1329.67 1506.12 A 78.9793 78.9793 0 0 1 1292.48 1522.27 C 1234.45 1531.35 1151.78 1493.73 1105.14 1459.46 z"/>
<path transform="translate(0,0)" fill="rgb(9,141,251)" d="M 1116.78 986.944 C 1141.79 987.321 1163.29 982.953 1186.36 973.202 C 1194.48 996.162 1207.39 1012.74 1226.21 1028.11 L 1242.73 1038.96 A 1708.28 1708.28 0 0 0 1296.06 1068.8 C 1306.58 1074.56 1317.88 1080.06 1327.61 1087.06 C 1335.83 1092.98 1341.36 1102.2 1349.03 1108.27 C 1369.87 1134.44 1377.04 1155.02 1380.11 1187.92 C 1383.73 1217.5 1387.43 1250.91 1387.03 1280.61 C 1384.08 1288.64 1385.71 1312.57 1385.75 1322.02 C 1381.86 1323.22 1377.94 1324.6 1373.97 1325.44 L 1370.58 1324.9 L 1370.21 1326.34 C 1338.81 1336.33 1291.63 1333.79 1258.96 1331.02 C 1258.49 1337.54 1257.91 1344.06 1257.87 1350.6 L 1257.17 1356.16 C 1256.81 1374.45 1255.05 1392.79 1253.72 1411.03 C 1216.69 1399.63 1180.49 1384.87 1144.31 1371.05 C 1107.29 1356.91 1069.66 1343.56 1033.71 1326.82 C 1021.33 1294.71 1004.29 1277.98 980.761 1253.92 C 972.669 1246.01 964.215 1238.56 956.303 1230.45 C 952.703 1227.23 948.106 1222.52 942.746 1223.47 C 940.347 1223.9 938.575 1225.28 937.41 1227.41 C 934.808 1232.17 937.442 1238.24 939.093 1242.8 C 930.544 1237.01 923.096 1228.52 915.804 1221.21 C 923.018 1212.27 936.122 1177.97 941.664 1165.5 C 953.464 1138.96 965.225 1113.72 981.011 1089.21 A 3259.11 3259.11 0 0 0 981.835 1041.19 C 981.963 1031.23 981.408 1020.69 982.919 1010.85 C 987.61 1030.05 992.245 1051.8 1004.88 1067.59 A 278.989 278.989 0 0 1 1075.28 1034.76 C 1082.1 1032.19 1088.79 1029.24 1095.84 1027.36 C 1101.6 1025.3 1107.32 1023.12 1113.06 1020.98 C 1115.42 1010.19 1115.67 997.96 1116.78 986.944 z"/>
<path transform="translate(0,0)" fill="rgb(10,135,246)" d="M 993.583 1164.61 A 1115.95 1115.95 0 0 0 984.386 1221.92 C 983.122 1231.91 983.53 1244.49 980.761 1253.92 C 972.669 1246.01 964.215 1238.56 956.303 1230.45 C 965.926 1207.83 975.584 1181.96 993.583 1164.61 z"/>
<path transform="translate(0,0)" fill="rgb(10,135,246)" d="M 1216.82 1346.88 C 1216.7 1303.43 1234.86 1194.43 1252.89 1155.42 C 1245.57 1194.28 1244.36 1234.91 1242.54 1274.32 C 1241.71 1292.17 1239.96 1310 1239.78 1327.86 C 1246.2 1328.56 1252.83 1328.88 1258.96 1331.02 C 1258.49 1337.54 1257.91 1344.06 1257.87 1350.6 L 1257.17 1356.16 C 1243.47 1356.46 1229.12 1352.76 1216.82 1346.88 z"/>
<path transform="translate(0,0)" fill="rgb(255,255,255)" d="M 1095.84 1027.36 C 1101.6 1025.3 1107.32 1023.12 1113.06 1020.98 C 1112.96 1040.14 1113.81 1059.76 1128.01 1074.48 C 1134.8 1081.51 1143.61 1084.74 1153.3 1084.6 C 1174.09 1084.3 1193.34 1071.14 1207.03 1056.46 C 1215.01 1047.9 1220.72 1038.38 1226.21 1028.11 L 1242.73 1038.96 C 1233.23 1056.12 1222.64 1070.97 1207.05 1083.17 C 1189.05 1097.27 1165.71 1106.8 1142.51 1103.72 A 52.0263 52.0263 0 0 1 1106.97 1082.4 C 1095.77 1066.94 1092.94 1045.87 1095.84 1027.36 z"/>
<path transform="translate(0,0)" fill="rgb(231,190,178)" d="M 1116.78 986.944 C 1141.79 987.321 1163.29 982.953 1186.36 973.202 C 1194.48 996.162 1207.39 1012.74 1226.21 1028.11 C 1220.72 1038.38 1215.01 1047.9 1207.03 1056.46 C 1193.34 1071.14 1174.09 1084.3 1153.3 1084.6 C 1143.61 1084.74 1134.8 1081.51 1128.01 1074.48 C 1113.81 1059.76 1112.96 1040.14 1113.06 1020.98 C 1115.42 1010.19 1115.67 997.96 1116.78 986.944 z"/>
</svg>