<svg xmlns="http://www.w3.org/2000/svg" xmlns:xlink="http://www.w3.org/1999/xlink" version="1.1" width="288" height="288" viewBox="0 0 288 288">
<g>
<path transform="matrix(1,0,0,-1,0,288)" d="M0 0H288.007V288.007H0Z" fill="#ffffff"/>
<path transform="matrix(1,0,0,-1,144.0031,60.5204)" d="M0 0C-3.905-.004-7.07-3.169-7.074-7.074V-159.878C-7.074-163.785-3.907-166.952 0-166.952 3.907-166.952 7.074-163.785 7.074-159.878V-7.074C7.07-3.169 3.905-.004 0 0M-25.467-19.808C-29.373-19.812-32.538-22.977-32.542-26.882V-140.07C-32.549-142.602-31.202-144.945-29.01-146.213-26.819-147.482-24.116-147.482-21.924-146.213-19.733-144.945-18.386-142.602-18.393-140.07V-26.882C-18.397-22.977-21.562-19.812-25.467-19.808M-50.934-42.445C-54.84-42.449-58.005-45.614-58.009-49.52V-117.432C-58.009-121.339-54.842-124.507-50.935-124.507-47.028-124.507-43.86-121.339-43.86-117.432V-49.52C-43.864-45.614-47.029-42.45-50.934-42.445M-76.402-65.083C-80.307-65.087-83.472-68.252-83.476-72.157V-94.795C-83.432-98.671-80.278-101.789-76.402-101.789-72.526-101.789-69.371-98.67-69.328-94.795V-72.157C-69.332-68.252-72.496-65.087-76.402-65.083M25.467-19.808C21.562-19.812 18.397-22.977 18.393-26.882V-140.07C18.386-142.602 19.733-144.945 21.924-146.213 24.116-147.482 26.819-147.482 29.01-146.213 31.202-144.945 32.549-142.602 32.542-140.07V-26.882C32.538-22.977 29.373-19.811 25.467-19.808M50.934-42.445C47.029-42.449 43.864-45.614 43.86-49.52V-117.432C43.86-121.339 47.028-124.507 50.935-124.507 54.842-124.507 58.009-121.339 58.009-117.432V-49.52C58.005-45.614 54.84-42.449 50.934-42.445M76.402-65.083C72.496-65.086 69.331-68.252 69.328-72.157V-94.795C69.372-98.67 72.527-101.788 76.402-101.788 80.277-101.788 83.432-98.67 83.476-94.795V-72.157C83.473-68.252 80.307-65.087 76.402-65.083" fill="#454545"/>
</g>
</svg>
